<svg xmlns="http://www.w3.org/2000/svg" xmlns:xlink="http://www.w3.org/1999/xlink" viewBox="-10 -10 61 61" fill="#fff" fill-rule="evenodd" stroke="#000" stroke-linecap="round" stroke-linejoin="round"><use xlink:href="#A" x=".5" y=".5"/><symbol id="A" overflow="visible"><g stroke-width=".5"><path d="M31.432 36.432C28.196 38.683 24.258 40 20 40s-8.196-1.317-11.432-3.568C3.382 32.826 0 26.822 0 20A19.96 19.96 0 0 1 20 0a19.96 19.96 0 0 1 20 20c0 5.546-2.235 10.55-5.856 14.166-.834.832-1.741 1.591-2.712 2.266z"/><path d="M2.727 30l9.091-28.182m16.364 0L37.273 30" stroke-linecap="square"/><path d="M8.25 27.063Q12.382 28.464 19.893 20 7.157 22.504 7.779 26.61l.471.453z"/><path d="M19.569 6.432q-3.28 2.878.295 13.615 4.2-12.282.333-13.796l-.627.182z"/><path d="M31.643 27.063Q27.511 28.464 20 20q12.737 2.504 12.114 6.61l-.471.453z"/></g></symbol></svg>